<svg
    width="28"
    height="29"
    viewBox="0 0 28 29"
    fill="currentColor"
    xmlns="http://www.w3.org/2000/svg"
    >
    <path
        d="M2.37759 6.77881C2.34802 6.93402 2.33318 7.09185 2.33325 7.25006V21.7501C2.33325 22.391 2.57908 23.0057 3.01667 23.4589C3.45425 23.9121 4.04775 24.1667 4.66659 24.1667H23.3333C23.9521 24.1667 24.5456 23.9121 24.9832 23.4589C25.4208 23.0057 25.6666 22.391 25.6666 21.7501V7.25006C25.6666 7.10506 25.6549 6.96247 25.6316 6.82472L24.6213 7.61014L15.4163 14.8988C15.0094 15.2209 14.5115 15.3954 13.9993 15.3954C13.4872 15.3954 12.9893 15.2209 12.5824 14.8988L3.36459 7.59806L2.37759 6.77881Z"
    />
    <path
        d="M24.1232 4.97463C23.8698 4.88058 23.6026 4.83274 23.3334 4.83326H4.66672C4.40422 4.83326 4.15339 4.87796 3.91772 4.96013L4.80206 5.69359L14.0001 12.9798L23.2167 5.67909L24.1232 4.97463Z"
    />
</svg>