<svg
                        width="30"
                        height="32"
                        viewBox="0 0 30 32"
                        fill="currentColor"
                        xmlns="http://www.w3.org/2000/svg"
                      >
                        <path
                          fill-rule="evenodd"
                          clip-rule="evenodd"
                          d="M14.8826 2.65878C16.2506 2.64072 17.6076 2.92221 18.8695 3.48585C20.1315 4.04948 21.2717 4.88327 22.2195 5.93566C23.1673 6.98805 23.9027 8.23666 24.3801 9.60428C24.8575 10.9719 25.0668 12.4294 24.9951 13.8868C24.901 15.7673 24.3416 17.5877 23.3738 19.1628C23.329 19.2604 23.2732 19.3517 23.2076 19.4348L23.0726 19.6068C22.8501 19.9308 22.6101 20.2428 22.3563 20.5388L15.9663 28.8374C15.849 28.9896 15.7016 29.1122 15.5347 29.1963C15.3677 29.2804 15.1853 29.3241 15.0007 29.3241C14.816 29.3241 14.6337 29.2804 14.4667 29.1963C14.2997 29.1122 14.1523 28.9896 14.0351 28.8374L7.47756 20.3468L7.47506 20.3441C7.34418 20.1771 7.21542 20.0082 7.08881 19.8374L6.92256 19.6201C6.85843 19.5376 6.80387 19.4472 6.76006 19.3508C5.73583 17.7587 5.13626 15.8997 5.02536 13.9724C4.91447 12.0451 5.29642 10.1219 6.13043 8.40811C6.96444 6.69433 8.21918 5.25437 9.76065 4.242C11.3021 3.22963 13.0725 2.68287 14.8826 2.66011V2.65878ZM18.7501 13.3294C18.7592 13.8608 18.6689 14.3887 18.4846 14.8825C18.3002 15.3762 18.0255 15.8258 17.6764 16.205C17.3274 16.5842 16.911 16.8854 16.4515 17.091C15.9921 17.2966 15.4989 17.4025 15.0007 17.4025C14.5025 17.4025 14.0092 17.2966 13.5498 17.091C13.0904 16.8854 12.674 16.5842 12.3249 16.205C11.9759 15.8258 11.7011 15.3762 11.5168 14.8825C11.3325 14.3887 11.2422 13.8608 11.2513 13.3294C11.2692 12.2814 11.6722 11.2827 12.3733 10.5483C13.0745 9.81393 14.018 9.40247 15.0007 9.40247C15.9834 9.40247 16.9268 9.81393 17.628 10.5483C18.3292 11.2827 18.7321 12.2814 18.7501 13.3294Z"
                        />
                      </svg>