<svg
    width="31"
    height="31"
    viewBox="0 0 31 31"
    fill="currentColor"
    xmlns="http://www.w3.org/2000/svg"
    >
    <path
        d="M10.3048 5.16675C9.83325 5.16672 9.36718 5.26782 8.93802 5.46323C8.50887 5.65865 8.12662 5.94383 7.81705 6.29954C5.46751 8.65425 4.77776 11.3035 5.36418 13.9682C5.93251 16.545 7.66076 18.9966 9.82818 21.1653C11.9982 23.334 14.4485 25.0636 17.0228 25.6332C19.6862 26.2222 22.338 25.5389 24.6953 23.1984C25.0525 22.8886 25.339 22.5056 25.5354 22.0755C25.7318 21.6453 25.8335 21.178 25.8336 20.7051C25.8337 20.2323 25.7323 19.7649 25.5361 19.3346C25.3399 18.9044 25.0536 18.5213 24.6966 18.2113L23.1336 16.6484C22.4823 15.9973 21.5991 15.6316 20.6782 15.6316C19.7573 15.6316 18.874 15.9973 18.2227 16.6484L17.4258 17.4466C17.3291 17.5433 17.2143 17.62 17.088 17.6724C16.9617 17.7247 16.8262 17.7516 16.6895 17.7516C16.5528 17.7516 16.4174 17.7247 16.291 17.6724C16.1647 17.62 16.0499 17.5433 15.9533 17.4466L13.5585 15.0506C13.3635 14.8552 13.254 14.5904 13.254 14.3143C13.254 14.0383 13.3635 13.7735 13.5585 13.5781L14.3568 12.7772C15.0073 12.1254 15.3726 11.2421 15.3726 10.3211C15.3726 9.40023 15.0073 8.51692 14.3568 7.86504L12.7938 6.30083C12.4841 5.94485 12.1017 5.65942 11.6723 5.46379C11.243 5.26815 10.7766 5.16686 10.3048 5.16675Z"
    />
</svg>