<svg
                        width="32"
                        height="32"
                        viewBox="0 0 32 32"
                        fill="currentColor"
                        xmlns="http://www.w3.org/2000/svg"
                      >
                        <path
                          fill-rule="evenodd"
                          clip-rule="evenodd"
                          d="M16.0001 26.6667C13.5749 26.6706 11.2214 25.8444 9.33075 24.3254L9.33341 24.3267V23.4161C9.33341 21.0241 11.3227 19.0827 13.7774 19.0827H18.2227C20.6761 19.0827 22.6667 21.0241 22.6667 23.4161V24.3267C20.7767 25.8447 18.4242 26.6704 16.0001 26.6667ZM2.66675 16.0001C2.66675 8.63608 8.63608 2.66675 16.0001 2.66675C23.3641 2.66675 29.3334 8.63608 29.3334 16.0001C29.3334 23.3334 23.4134 29.2841 16.0907 29.3334H15.9067C8.58408 29.2827 2.66675 23.3334 2.66675 16.0001ZM16.0001 9.33341C13.5467 9.33341 11.5561 11.2734 11.5561 13.6667C11.5561 16.0601 13.5454 18.0001 16.0001 18.0001C18.4534 18.0001 20.4441 16.0601 20.4441 13.6667C20.4441 11.2734 18.4547 9.33341 16.0001 9.33341Z"
                        />
                      </svg>