<svg width="38" height="36" viewBox="0 0 38 36" fill="none" xmlns="http://www.w3.org/2000/svg">
<path d="M24.1275 16.8252C22.548 18.4047 21.0372 19.9156 19.4577 21.4951C18.4962 20.5336 17.4661 19.5035 16.5047 18.5421C15.2685 17.3059 13.2769 19.2288 14.5818 20.465C15.8866 21.7698 17.1914 23.0746 18.4962 24.3794C19.0456 24.9288 19.9384 24.9288 20.4191 24.3794L26.0504 18.7481C27.3553 17.512 25.4324 15.5891 24.1275 16.8252Z" fill="white"/>
<path d="M32.4373 1.85422C32.4373 1.71687 32.4373 1.57952 32.4373 1.44217C32.4373 0.755422 31.8193 0.0686746 31.0639 0.0686746C30.3084 0.0686746 29.6904 0.686747 29.6904 1.44217V1.85422H12.7277V1.78554C12.7277 1.64819 12.7277 1.51084 12.7277 1.37349C12.7277 0.686747 12.1096 0 11.3542 0C10.5988 0 9.98072 0.618073 9.98072 1.37349V1.92289C6.82169 1.92289 4.21205 4.53253 4.21205 7.69157V12.9795C4.14337 13.1855 4.0747 13.3229 4.0747 13.5289C3.66265 16.4819 2.9759 19.4349 2.01446 22.2506C1.53374 23.5554 0.984337 24.9289 0.366265 26.1651C-0.183132 27.3325 -0.114458 28.6373 0.572289 29.6675C1.25904 30.6976 2.35783 31.3157 3.59398 31.3157H4.3494C4.96747 33.8566 7.23373 35.7108 9.98072 35.7108H32.2313C35.3904 35.7108 38 33.1012 38 29.9422V7.62289C38 4.46386 35.5277 1.99157 32.4373 1.85422ZM9.91205 4.6012V4.8759C9.91205 5.56265 10.5301 6.2494 11.2855 6.2494C12.041 6.2494 12.659 5.63132 12.659 4.8759C12.659 4.80723 12.659 4.66988 12.659 4.6012H29.6904V5.01325C29.6904 5.7 30.3084 6.38675 31.0639 6.38675C31.8193 6.38675 32.4373 5.76867 32.4373 5.01325C32.4373 4.8759 32.4373 4.73855 32.4373 4.6012C34.0169 4.73855 35.253 6.04337 35.253 7.62289V10.9193C35.1843 10.9193 35.047 10.9193 34.9783 10.9193H6.89036V7.62289C6.89036 5.90602 8.26385 4.6012 9.91205 4.6012ZM2.83855 28.1566C2.7012 27.8819 2.63253 27.6072 2.76988 27.3325C3.38795 25.959 4.00602 24.5855 4.48675 23.1434C5.51687 20.1217 6.27229 17.0313 6.68434 13.8723C6.68434 13.8036 6.75301 13.7349 6.82169 13.7349H34.9096C34.9096 13.7349 34.9783 13.7349 35.047 13.8036C35.047 13.8036 35.1157 13.8723 35.1157 13.941C34.7723 17.0313 34.0855 20.053 33.1241 22.9373C32.6434 24.3795 32.0253 25.8217 31.3386 27.2639C30.9265 28.088 30.0337 28.6373 29.0723 28.6373H3.59398C3.2506 28.5 2.9759 28.3626 2.83855 28.1566ZM32.2313 32.8952H9.91205C8.74458 32.8952 7.78313 32.2084 7.23373 31.247H29.0036C30.9952 31.247 32.8494 30.0795 33.7422 28.294C34.2916 27.1952 34.7723 26.0277 35.1843 24.8602V29.8735C35.253 31.5217 33.8795 32.8952 32.2313 32.8952Z" fill="white"/>
</svg>
