<svg
                  width="30"
                  height="33"
                  viewBox="0 0 30 33"
                  fill="none"
                  xmlns="http://www.w3.org/2000/svg"
                >
                  <g clip-path="url(#clip0_65_1172)">
                    <path
                      fill-rule="evenodd"
                      clip-rule="evenodd"
                      d="M9.5459 12.375C9.5459 9.33743 11.988 6.875 15.0004 6.875C18.0129 6.875 20.455 9.33743 20.455 12.375C20.455 15.4125 18.0129 17.875 15.0004 17.875C11.988 17.875 9.5459 15.4125 9.5459 12.375ZM15.0004 9.625C13.4942 9.625 12.2732 10.8562 12.2732 12.375C12.2732 13.8938 13.4942 15.125 15.0004 15.125C16.5067 15.125 17.7277 13.8938 17.7277 12.375C17.7277 10.8562 16.5067 9.625 15.0004 9.625Z"
                      fill="#FFFEFE"
                    />
                    <path
                      fill-rule="evenodd"
                      clip-rule="evenodd"
                      d="M15.0003 27.5L15.8666 28.5618C15.3633 28.9794 14.6367 28.9789 14.1334 28.5615L14.1233 28.553L14.097 28.5311L14.0634 28.5028L14 28.4492C13.916 28.3779 13.7947 28.2741 13.6411 28.1406C13.334 27.8737 12.8978 27.4875 12.3753 27.0056C11.3322 26.0435 9.93688 24.692 8.53719 23.1411C7.1423 21.5956 5.71517 19.8213 4.62932 18.0136C3.56172 16.236 2.72754 14.2695 2.72754 12.375C2.72754 5.54048 8.22223 0 15.0003 0C21.7784 0 27.273 5.54048 27.273 12.375C27.273 14.2695 26.4389 16.236 25.3713 18.0136C24.2854 19.8213 22.8582 21.5956 21.4634 23.1411C20.0636 24.692 18.6683 26.0435 17.6253 27.0056C17.1027 27.4875 16.6665 27.8737 16.3594 28.1406C16.2059 28.2741 16.0845 28.3779 16.0005 28.4492C15.9586 28.4848 15.926 28.5121 15.9035 28.5311L15.8772 28.553L15.8678 28.5608C15.8678 28.5608 15.8666 28.5618 15.0003 27.5ZM15.0003 2.75C9.72846 2.75 5.45481 7.05926 5.45481 12.375C5.45481 13.518 5.98427 14.961 6.96212 16.589C7.92173 18.1866 9.22187 19.8139 10.5543 21.2902C11.8818 22.7612 13.2138 24.0519 14.2162 24.9765C14.5092 25.2469 14.7735 25.4852 15.0003 25.6869C15.227 25.4852 15.4913 25.2469 15.7844 24.9765C16.7868 24.0519 18.1188 22.7612 19.4463 21.2902C20.7787 19.8139 22.0788 18.1866 23.0384 16.589C24.0162 14.961 24.5457 13.518 24.5457 12.375C24.5457 7.05926 20.2721 2.75 15.0003 2.75ZM14.1334 28.5615C14.1334 28.5615 14.1339 28.5618 15.0003 27.5L14.1334 28.5615Z"
                      fill="#FFFEFE"
                    />
                    <path
                      d="M3.24385 27.0019C2.86954 27.2657 2.76357 27.4384 2.73525 27.5C2.76323 27.5608 2.86625 27.728 3.22415 27.984C3.74475 28.3564 4.58654 28.7478 5.74947 29.0997C8.05799 29.7981 11.3289 30.2499 15 30.2499C18.671 30.2499 21.942 29.7981 24.2505 29.0997C25.4134 28.7478 26.2552 28.3564 26.7758 27.984C27.1338 27.728 27.2367 27.5608 27.2647 27.5C27.2365 27.4384 27.1305 27.2657 26.7562 27.0019C26.2186 26.6228 25.3523 26.2265 24.1608 25.8731C23.4382 25.6589 23.0247 24.8947 23.2372 24.1661C23.4498 23.4376 24.2077 23.0207 24.9301 23.2349C26.2631 23.6302 27.4424 24.1299 28.319 24.7482C29.1575 25.3394 30 26.2481 30 27.4999C30 28.736 29.1777 29.6377 28.3537 30.2271C27.4942 30.8417 26.3389 31.339 25.0342 31.7337C22.4073 32.5284 18.86 32.9999 15 32.9999C11.1399 32.9999 7.59267 32.5284 4.96579 31.7337C3.66104 31.339 2.50582 30.8417 1.64635 30.2271C0.822292 29.6377 0 28.736 0 27.4999C0 26.2481 0.842508 25.3394 1.6809 24.7482C2.55769 24.1299 3.73685 23.6302 5.0698 23.2349C5.79232 23.0207 6.5503 23.4376 6.76278 24.1661C6.97527 24.8947 6.5618 25.6589 5.8393 25.8731C4.64765 26.2265 3.78136 26.6228 3.24385 27.0019Z"
                      fill="#FFFEFE"
                    />
                  </g>
                  <defs>
                    <clipPath id="clip0_65_1172">
                      <rect width="30" height="33" fill="white" />
                    </clipPath>
                  </defs>
                </svg>